<svg width="17" height="17" viewBox="0 0 17 17" fill="none" xmlns="http://www.w3.org/2000/svg">
<g id="Frame">
<path id="Vector" d="M10.1794 6.43683H3.78808L7.31741 2.90883C7.38108 2.84733 7.43187 2.77377 7.46681 2.69243C7.50175 2.61109 7.52014 2.52361 7.52091 2.43509C7.52168 2.34657 7.50481 2.25879 7.47129 2.17686C7.43777 2.09493 7.38827 2.02049 7.32567 1.9579C7.26308 1.8953 7.18864 1.8458 7.10671 1.81228C7.02478 1.77876 6.937 1.76189 6.84848 1.76266C6.75996 1.76343 6.67248 1.78182 6.59114 1.81676C6.50981 1.8517 6.43624 1.90249 6.37474 1.96616L1.70808 6.63149C1.69874 6.64083 1.69541 6.65349 1.68674 6.66349C1.57321 6.78135 1.51069 6.93919 1.51274 7.10283V7.10416C1.51274 7.12216 1.52141 7.13749 1.52274 7.15483C1.52691 7.31506 1.59453 7.46709 1.71074 7.57749L6.37474 12.2428C6.50048 12.3643 6.66888 12.4315 6.84368 12.4299C7.01848 12.4284 7.18568 12.3583 7.30929 12.2347C7.4329 12.1111 7.50301 11.9439 7.50453 11.7691C7.50605 11.5943 7.43885 11.4259 7.31741 11.3002L3.78941 7.77083H10.1794C11.4167 7.77224 12.6028 8.26436 13.4777 9.13922C14.3525 10.0141 14.8447 11.2003 14.8461 12.4375V14.4415C14.8461 14.6183 14.9163 14.7879 15.0413 14.9129C15.1664 15.0379 15.3359 15.1082 15.5127 15.1082C15.6896 15.1082 15.8591 15.0379 15.9841 14.9129C16.1092 14.7879 16.1794 14.6183 16.1794 14.4415V12.4375C16.1776 10.8467 15.5449 9.32164 14.4201 8.1968C13.2953 7.07197 11.7702 6.43926 10.1794 6.43749V6.43683Z" fill="#8E8E8E"/>
</g>
</svg>
