<svg width="25" height="25" viewBox="0 0 25 25" fill="none" xmlns="http://www.w3.org/2000/svg">
<g id="Frame">
<path id="Vector" d="M12.8457 13.9375C13.6741 13.9375 14.3457 13.2659 14.3457 12.4375C14.3457 11.6091 13.6741 10.9375 12.8457 10.9375C12.0173 10.9375 11.3457 11.6091 11.3457 12.4375C11.3457 13.2659 12.0173 13.9375 12.8457 13.9375Z" fill="#8E8E8E"/>
<path id="Vector_2" d="M6.8457 13.9375C7.67413 13.9375 8.3457 13.2659 8.3457 12.4375C8.3457 11.6091 7.67413 10.9375 6.8457 10.9375C6.01728 10.9375 5.3457 11.6091 5.3457 12.4375C5.3457 13.2659 6.01728 13.9375 6.8457 13.9375Z" fill="#8E8E8E"/>
<path id="Vector_3" d="M18.8457 13.9375C19.6741 13.9375 20.3457 13.2659 20.3457 12.4375C20.3457 11.6091 19.6741 10.9375 18.8457 10.9375C18.0173 10.9375 17.3457 11.6091 17.3457 12.4375C17.3457 13.2659 18.0173 13.9375 18.8457 13.9375Z" fill="#8E8E8E"/>
</g>
</svg>
