<svg width="22" height="18" viewBox="0 0 22 18" fill="none" xmlns="http://www.w3.org/2000/svg">
<path id="i" d="M8.51929 0.288721H12.7848C12.8967 0.288721 13.0039 0.332624 13.083 0.410772C13.1621 0.488921 13.2065 0.594913 13.2065 0.705431V17.2643C13.2065 17.3748 13.1621 17.4808 13.083 17.559C13.0039 17.6371 12.8967 17.681 12.7848 17.681H8.51929C8.40746 17.681 8.3002 17.6371 8.22112 17.559C8.14204 17.4808 8.09761 17.3748 8.09761 17.2643V0.68905C8.09761 0.578531 8.14204 0.472539 8.22112 0.39439C8.3002 0.316242 8.40746 0.272339 8.51929 0.272339V0.288721ZM16.4111 8.56458H20.6766C20.7885 8.56458 20.8957 8.60848 20.9748 8.68663C21.0539 8.76478 21.0983 8.87077 21.0983 8.98129V17.2643C21.0983 17.3748 21.0539 17.4808 20.9748 17.559C20.8957 17.6371 20.7885 17.681 20.6766 17.681H16.4111C16.2993 17.681 16.192 17.6371 16.1129 17.559C16.0338 17.4808 15.9894 17.3748 15.9894 17.2643V8.97105C15.9894 8.86053 16.0338 8.75454 16.1129 8.67639C16.192 8.59824 16.2993 8.55434 16.4111 8.55434V8.56458ZM0.629569 3.48931H4.89303C5.00236 3.49115 5.10669 3.53489 5.18401 3.6113C5.26133 3.68771 5.30559 3.79081 5.30746 3.89885V17.2643C5.30747 17.3736 5.26404 17.4785 5.18652 17.5565C5.109 17.6344 5.0036 17.6791 4.89303 17.681H0.629569C0.517732 17.681 0.410475 17.6371 0.331394 17.559C0.252313 17.4808 0.207886 17.3748 0.207886 17.2643V3.89475C0.209788 3.78548 0.255053 3.68132 0.333929 3.60472C0.412805 3.52811 0.518977 3.48519 0.629569 3.48521V3.48931Z" fill="black"/>
</svg>
