<svg width="22" height="22" viewBox="0 0 22 22" fill="none" xmlns="http://www.w3.org/2000/svg">
<g id="Frame">
<path id="Vector" d="M15.3435 3.92963C16.4876 3.99288 17.5604 4.50577 18.328 5.35653C19.0956 6.2073 19.4958 7.32697 19.4415 8.47155C19.4415 11.1455 17.1331 12.788 14.9178 14.7578C12.7313 16.7102 11.5536 17.7774 11.1723 18.0237C10.7572 17.7547 9.30701 16.4369 7.42687 14.7578C5.20204 12.7802 2.90323 11.122 2.90323 8.47155C2.84888 7.32697 3.24913 6.2073 4.01674 5.35653C4.78435 4.50577 5.8571 3.99288 7.00123 3.92963C7.63503 3.91042 8.26297 4.056 8.82367 4.35214C9.38436 4.64827 9.85862 5.08483 10.2001 5.61914C10.9312 6.6419 11.0531 7.15371 11.175 7.15371C11.2968 7.15371 11.4169 6.6419 12.1411 5.61653C12.4807 5.07975 12.9551 4.64146 13.517 4.34544C14.079 4.04943 14.7088 3.90605 15.3435 3.92963ZM15.3435 2.18876C14.5531 2.16345 13.7671 2.31678 13.0442 2.63734C12.3212 2.95789 11.6799 3.4374 11.168 4.04017C10.6565 3.43916 10.0165 2.96075 9.2953 2.6403C8.57409 2.31984 7.79009 2.16553 7.00123 2.18876C5.39517 2.25156 3.87931 2.94776 2.78514 4.12512C1.69097 5.30248 1.10752 6.8652 1.16236 8.47155C1.16236 11.6138 3.38196 13.5436 5.52758 15.4089C5.77392 15.623 6.02286 15.8389 6.27006 16.0591L7.164 16.8582C8.13892 17.7859 9.16101 18.6627 10.2262 19.4852C10.508 19.6676 10.8366 19.7647 11.1723 19.7647C11.5081 19.7647 11.8367 19.6676 12.1185 19.4852C13.2176 18.6376 14.2711 17.7325 15.2747 16.7738L16.0772 16.0565C16.3323 15.8302 16.5908 15.6048 16.8476 15.3828C18.8792 13.6202 21.1823 11.6225 21.1823 8.47155C21.2372 6.8652 20.6537 5.30248 19.5596 4.12512C18.4654 2.94776 16.9495 2.25156 15.3435 2.18876Z" fill="#262626"/>
</g>
</svg>
